<?xml version="1.0" standalone="no"?>
<!DOCTYPE svg PUBLIC "-//W3C//DTD SVG 1.1//EN" "http://www.w3.org/Graphics/SVG/1.1/DTD/svg11.dtd" >
<svg xmlns="http://www.w3.org/2000/svg">
<metadata>Generated by IcoMoon</metadata>
<defs>
<font id="thegem-icons" horiz-adv-x="1024">
<font-face units-per-em="1024" ascent="960" descent="-64" />
<missing-glyph horiz-adv-x="1024" />
<glyph unicode="&#x20;" horiz-adv-x="512" d="" />
<glyph unicode="&#xe600;" glyph-name="uni32" d="M360.030 272.626l185.567 185.567 185.567-185.567c12.516-12.516 32.864-12.516 45.38 0s12.516 32.864 0 45.38l-208.161 208.161c-6.29 6.29-14.506 9.371-22.786 9.371s-16.496-3.081-22.786-9.371l-208.161-208.161c-12.516-12.516-12.516-32.864 0-45.38s32.864-12.516 45.38 0z" />
<glyph unicode="&#xe601;" glyph-name="uni35" d="M442.897 144.378c12.516-12.516 32.864-12.516 45.38 0l208.161 208.161c6.29 6.29 9.435 14.57 9.371 22.786 0 8.28-3.081 16.496-9.371 22.786l-208.161 208.161c-12.516 12.516-32.864 12.516-45.38 0s-12.516-32.864 0-45.38l185.567-185.567-185.567-185.567c-12.516-12.516-12.516-32.864 0-45.38z" />
<glyph unicode="&#xe602;" glyph-name="uni33" d="M731.164 478.027l-185.567-185.567-185.567 185.567c-12.516 12.516-32.864 12.516-45.38 0s-12.516-32.864 0-45.38l208.161-208.161c6.29-6.29 14.57-9.435 22.786-9.371 8.28 0 16.496 3.081 22.786 9.371l208.161 208.161c12.516 12.516 12.516 32.864 0 45.38s-32.864 12.516-45.38 0z" />
<glyph unicode="&#xe603;" glyph-name="uni34" d="M394.756 352.54l208.161-208.161c12.516-12.516 32.864-12.516 45.38 0s12.516 32.864 0 45.38l-185.567 185.567 185.567 185.567c12.516 12.516 12.516 32.864 0 45.38s-32.864 12.516-45.38 0l-208.161-208.161c-6.29-6.29-9.371-14.506-9.371-22.786s3.081-16.496 9.371-22.786z" />
<glyph unicode="&#xe604;" glyph-name="uniE01D" d="M488.213 393.813c92.238 0 167.273 75.035 167.273 167.273s-75.035 167.273-167.273 167.273-167.273-75.035-167.273-167.273c0-92.238 75.035-167.273 167.273-167.273zM488.213 664.172c56.805 0 103.086-46.215 103.086-103.086s-46.215-103.086-103.086-103.086-103.086 46.279-103.086 103.086 46.215 103.086 103.086 103.086zM464.849-88.687c5.391-5.97 10.59-9.822 15.597-12.516 0.064-0.064 0.192-0.064 0.256-0.128 3.465-1.798 6.869-3.145 10.078-3.145s6.61 1.347 10.078 3.145c0.064 0.064 0.192 0.064 0.256 0.128 5.007 2.697 10.206 6.546 15.597 12.516 0 0 298.345 324.47 328.321 605.612 1.798 14.506 3.017 29.205 3.017 44.161 0 198.726-161.111 359.837-359.837 359.837s-359.837-161.111-359.837-359.837c0-15.213 1.219-30.039 3.081-44.74 30.746-281.014 333.392-605.035 333.392-605.035zM488.213 856.736c163.037 0 295.649-132.612 295.649-295.649 0-10.849-0.771-22.402-2.633-37.356-22.978-215.414-225.236-468.186-290.386-545.083-66.819 77.025-271.964 329.155-295.714 545.597-1.734 14.186-2.569 25.867-2.569 36.844 0 163.037 132.612 295.649 295.649 295.649z" />
<glyph unicode="&#xe605;" glyph-name="uniE027" d="M962.817 279.045v128.375c0 295.008-226.005 449.315-449.315 449.315-217.854 0-449.315-157.453-449.315-449.315v-128.375c-35.433 0-64.189-28.756-64.189-64.189v-128.375c0-35.433 28.756-64.189 64.189-64.189 0-35.433 28.756-64.189 64.189-64.189s64.189 28.756 64.189 64.189v256.751c0 35.433-28.756 64.189-64.189 64.189v64.189c0 252.836 193.783 385.127 385.127 385.127 185.503 0 385.127-120.481 385.127-385.127v-64.189c-35.433 0-64.189-28.756-64.189-64.189v-256.751c0-35.433 28.756-64.189 64.189-64.189s64.189 28.756 64.189 64.189c35.433 0 64.189 28.756 64.189 64.189v128.375c0 35.433-28.756 64.189-64.189 64.189z" />
<glyph unicode="&#xe606;" glyph-name="uni62" d="M930.724 888.829h-834.442c-35.433 0-64.189-28.756-64.189-64.189v-834.442c0-35.433 28.756-64.189 64.189-64.189h834.442c35.433 0 64.189 28.756 64.189 64.189v834.442c0 35.433-28.756 64.189-64.189 64.189zM930.724-9.8h-834.442v834.442h834.442v-834.442zM256.751 375.327h513.502c17.715 0 32.093 14.378 32.093 32.093s-14.378 32.093-32.093 32.093h-513.502c-17.715 0-32.093-14.378-32.093-32.093s14.378-32.093 32.093-32.093zM256.751 567.89h513.502c17.715 0 32.093 14.378 32.093 32.093s-14.378 32.093-32.093 32.093h-513.502c-17.715 0-32.093-14.378-32.093-32.093s14.378-32.093 32.093-32.093zM256.751 182.763h513.502c17.715 0 32.093 14.378 32.093 32.093s-14.378 32.093-32.093 32.093h-513.502c-17.715 0-32.093-14.378-32.093-32.093s14.378-32.093 32.093-32.093z" />
<glyph unicode="&#xe607;" glyph-name="uniE010" d="M962.817 792.547h-898.631c-35.433 0-64.189-28.756-64.189-64.189v-641.879c0-35.433 28.756-64.189 64.189-64.189h898.631c35.433 0 64.189 28.756 64.189 64.189v641.879c0 35.433-28.756 64.189-64.189 64.189zM364.587 341.5l149.044-101.289 148.146 101.995 255.66-255.724h-807.868l255.019 255.019zM64.189 131.862v413.883l246.353-167.466-246.353-246.417zM715.502 379.178l247.316 170.226v-417.542l-247.316 247.316zM962.817 728.361v-103.855l-1.347 1.926-448.096-308.551-449.187 305.406v105.076h898.631z" />
<glyph unicode="&#xe608;" glyph-name="uniE0E3" d="M513.502 888.829c-265.866 0-481.409-215.542-481.409-481.409s215.542-481.409 481.409-481.409 481.409 215.542 481.409 481.409-215.542 481.409-481.409 481.409zM864.546 632.079h-95.639c-18.614 58.539-44.161 109.825-74.971 150.969 69.836-33.699 128.954-86.14 170.611-150.969zM545.597 632.079v187.301c60.657-17.907 119.775-85.177 156.169-187.301h-156.169zM720.445 567.89c9.051-39.282 14.893-82.288 16.752-128.375h-191.601v128.375h174.848zM481.409 819.379v-187.301h-156.169c36.395 102.124 95.511 169.391 156.169 187.301zM481.409 567.89v-128.375h-191.601c1.862 46.087 7.704 89.093 16.752 128.375h174.848zM225.62 439.515h-127.734c3.465 45.124 13.799 88.386 30.554 128.375h112.97c-8.6-40.632-13.994-83.573-15.789-128.375zM225.62 375.327c1.798-44.804 7.189-87.746 15.789-128.375h-112.97c-16.752 39.989-27.086 83.251-30.554 128.375h127.734zM289.808 375.327h191.601v-128.375h-174.848c-9.051 39.282-14.893 82.288-16.752 128.375zM481.409 182.763v-187.301c-60.657 17.907-119.775 85.177-156.169 187.301h156.169zM545.597-4.537v187.301h156.169c-36.395-102.124-95.511-169.391-156.169-187.301zM545.597 246.951v128.375h191.601c-1.862-46.087-7.704-89.093-16.752-128.375h-174.848zM801.386 375.327h127.734c-3.465-45.124-13.799-88.386-30.554-128.375h-112.97c8.6 40.632 13.994 83.573 15.789 128.375zM801.386 439.515c-1.798 44.804-7.189 87.746-15.789 128.375h112.97c16.752-39.989 27.086-83.251 30.554-128.375h-127.734zM333.071 783.048c-30.746-41.144-56.357-92.43-74.971-150.969h-95.639c41.659 64.829 100.774 117.271 170.611 150.969zM162.459 182.763h95.639c18.614-58.539 44.161-109.825 74.971-150.969-69.836 33.699-128.954 86.14-170.611 150.969zM693.935 31.794c30.746 41.144 56.357 92.43 74.971 150.969h95.639c-41.659-64.829-100.774-117.271-170.611-150.969z" />
<glyph unicode="&#xe609;" glyph-name="ic_remove_circle_black_24px" d="M513.502 813.944c-236.211 0-427.919-191.708-427.919-427.919s191.708-427.919 427.919-427.919 427.919 191.708 427.919 427.919-191.708 427.919-427.919 427.919zM727.462 343.233h-427.919v85.583h427.919v-85.583z" />
<glyph unicode="&#xe60a;" glyph-name="ic_add_circle_black_24px" d="M513.502 813.944c-236.211 0-427.919-191.708-427.919-427.919s191.708-427.919 427.919-427.919 427.919 191.708 427.919 427.919-191.708 427.919-427.919 427.919zM727.462 343.233h-171.168v-171.168h-85.583v171.168h-171.168v85.583h171.168v171.168h85.583v-171.168h171.168v-85.583z" />
<glyph unicode="&#xe60b;" glyph-name="11" d="M66.653 110.154c44.468-41.543 100.236-62.186 167.35-62.186 67.321 0 123.035 21.669 167.401 65.113 44.624 43.339 66.755 102.342 66.755 176.851 0 74.561-31.168 132.585-93.559 174.078l127.605 302.864h-232.617l-207.096-300.091c-41.749-64.138-62.493-129.146-62.493-195.286 0-65.984 22.287-119.749 66.653-161.342zM758.957 47.968c67.062 0 122.933 21.669 167.401 65.113 44.366 43.339 66.653 102.342 66.653 176.851 0 74.561-31.273 132.585-93.611 174.078l127.605 302.864h-232.668l-207.096-300.091c-41.543-64.138-62.442-129.146-62.442-195.337 0-65.984 22.338-119.749 66.755-161.342 44.366-41.491 100.288-62.135 167.401-62.135z" />
<glyph unicode="&#xe60c;" glyph-name="12" d="M960.353 704.689c-44.468 41.543-100.236 62.186-167.35 62.186-67.321 0-123.035-21.669-167.401-65.113-44.624-43.339-66.755-102.342-66.755-176.851 0-74.561 31.168-132.585 93.559-174.078l-127.605-302.864h232.617l207.096 300.091c41.749 64.138 62.493 129.146 62.493 195.286 0 65.984-22.287 119.749-66.653 161.342zM268.049 766.872c-67.062 0-122.933-21.669-167.401-65.113-44.366-43.339-66.653-102.342-66.653-176.851 0-74.561 31.273-132.585 93.611-174.078l-127.605-302.864h232.668l207.096 300.091c41.543 64.138 62.442 129.146 62.442 195.337 0 65.984-22.338 119.749-66.755 161.342-44.366 41.491-100.288 62.135-167.401 62.135z" />
<glyph unicode="&#xe60d;" glyph-name="uniE0A0" d="M756.935 614.329c28.244-21.375 63.29-34.147 101.417-34.147 93.137 0 168.622 75.486 168.622 168.622s-75.486 168.622-168.622 168.622c-93.073 0-168.622-75.486-168.622-168.622 0-0.064 0-0.128 0-0.128l-416.194-201.229c-28.82 22.978-65.28 36.844-104.946 36.844-93.137 0-168.622-75.55-168.622-168.622s75.486-168.622 168.622-168.622c33.635 0 64.957 10.014 91.275 26.958l429.93-207.841c0-0.064 0-0.128 0-0.128 0-93.137 75.486-168.622 168.622-168.622s168.622 75.486 168.622 168.622c0 93.137-75.486 168.622-168.622 168.622-38.127 0-73.173-12.772-101.417-34.147l-420.431 203.218c0.192 2.569 0.32 5.071 0.384 7.637l419.981 202.962z" />
<glyph unicode="&#xe60e;" glyph-name="ic_remove_red_eye_24px" d="M513.502 706.965c-213.96 0-396.681-133.083-470.711-320.939 74.029-187.856 256.751-320.939 470.711-320.939s396.681 133.083 470.711 320.939c-74.029 187.856-256.751 320.939-470.711 320.939zM513.502 172.066c-118.105 0-213.96 95.854-213.96 213.96s95.854 213.96 213.96 213.96 213.96-95.854 213.96-213.96-95.854-213.96-213.96-213.96zM513.502 514.401c-71.034 0-128.375-57.341-128.375-128.375s57.341-128.375 128.375-128.375 128.375 57.341 128.375 128.375-57.341 128.375-128.375 128.375z" />
<glyph unicode="&#xe60f;" glyph-name="ic_photo_camera_24px" d="M650.437 364.629c0-75.627-61.308-136.934-136.934-136.934s-136.934 61.308-136.934 136.934c0 75.627 61.308 136.934 136.934 136.934s136.934-61.308 136.934-136.934zM385.127 792.547l-78.308-85.583h-135.649c-47.071 0-85.583-38.514-85.583-85.583v-513.502c0-47.071 38.514-85.583 85.583-85.583h684.671c47.071 0 85.583 38.514 85.583 85.583v513.502c0 47.071-38.514 85.583-85.583 85.583h-135.649l-78.308 85.583h-256.751zM513.502 150.67c-118.105 0-213.96 95.854-213.96 213.96s95.854 213.96 213.96 213.96 213.96-95.854 213.96-213.96-95.854-213.96-213.96-213.96z" />
<glyph unicode="&#xe610;" glyph-name="ic_movie_24px" d="M770.255 749.756l85.583-171.168h-128.375l-85.583 171.168h-85.583l85.583-171.168h-128.375l-85.583 171.168h-85.583l85.583-171.168h-128.375l-85.583 171.168h-42.793c-47.071 0-85.156-38.514-85.156-85.583l-0.427-513.502c0-47.071 38.514-85.583 85.583-85.583h684.671c47.071 0 85.583 38.514 85.583 85.583v599.086h-171.168z" />
<glyph unicode="&#xe611;" glyph-name="uniE094" d="M998.698 809.237c-40.696-24.136-85.82-41.659-133.832-51.158-38.449 41.016-93.201 66.563-153.794 66.563-116.373 0-210.729-94.356-210.729-210.665 0-16.496 1.862-32.608 5.455-48.013-175.105 8.795-330.375 92.687-434.295 220.165-18.166-31.066-28.5-67.27-28.5-105.909 0-73.109 37.228-137.618 93.714-175.361-34.534 1.155-67.011 10.654-95.447 26.446 0-0.899 0-1.734 0-2.633 0-102.059 72.661-187.236 169.007-206.621-17.651-4.815-36.265-7.381-55.522-7.381-13.607 0-26.766 1.347-39.669 3.788 26.83-83.702 104.626-144.615 196.8-146.349-72.082-56.485-162.973-90.184-261.694-90.184-17.011 0-33.763 1.027-50.259 2.953 93.265-59.758 203.989-94.676 322.993-94.676 387.566 0 599.514 321.068 599.514 599.514 0 9.115-0.192 18.23-0.643 27.281 41.272 29.591 77.025 66.691 105.269 108.926-37.807-16.752-78.373-28.113-120.994-33.184 43.518 26.059 76.897 67.398 92.622 116.502z" />
<glyph unicode="&#xe612;" glyph-name="ic_search_24px" d="M663.274 300.442h-33.806l-11.983 11.553c41.936 48.784 67.184 112.114 67.184 181.010 0 153.623-124.524 278.147-278.147 278.147s-278.147-124.524-278.147-278.147 124.524-278.147 278.147-278.147c68.894 0 132.227 25.248 181.010 67.184l11.553-11.983v-33.806l213.96-213.532 63.759 63.759-213.532 213.96zM406.523 300.442c-106.552 0-192.564 86.012-192.564 192.564s86.012 192.564 192.564 192.564 192.564-86.012 192.564-192.564-86.012-192.564-192.564-192.564z" />
<glyph unicode="&#xe613;" glyph-name="cart-outline" d="M727.462 129.274c47.071 0 85.583-38.514 85.583-85.583s-38.514-85.583-85.583-85.583c-47.498 0-85.583 38.514-85.583 85.583 0 47.498 38.084 85.583 85.583 85.583zM42.793 813.944h139.93l40.224-85.583h632.892c23.536 0 42.793-19.257 42.793-42.793 0-7.274-2.139-14.549-5.135-21.396l-153.195-276.863c-14.549-26.102-42.793-44.076-74.886-44.076h-318.8l-38.514-69.751-1.283-5.135c0-5.991 4.708-10.697 10.697-10.697h495.53v-85.583h-513.502c-47.498 0-85.583 38.514-85.583 85.583 0 14.978 3.852 29.097 10.27 41.080l58.198 104.839-154.050 324.791h-85.583v85.583zM299.544 129.274c47.071 0 85.583-38.514 85.583-85.583s-38.514-85.583-85.583-85.583c-47.498 0-85.583 38.514-85.583 85.583 0 47.498 38.084 85.583 85.583 85.583zM684.671 428.817l118.961 213.96h-540.89l100.989-213.96h320.939z" />
<glyph unicode="&#xe614;" glyph-name="uni4E" d="M442.511 99.704c1.283-1.027 2.054-2.438 3.401-3.401 1.926-1.283 4.108-1.542 6.162-2.438 2.438-1.155 4.815-2.246 7.381-2.953 2.502-0.643 4.943-0.963 7.509-1.155 3.66-0.384 7.189-0.384 10.785 0.128 1.475 0.256 2.889 0.643 4.364 1.027 4.428 1.091 8.536 2.825 12.58 5.263 0.707 0.448 1.283 0.963 1.99 1.411 2.633 1.798 5.455 3.145 7.704 5.583 1.606 1.734 2.31 3.98 3.596 5.906 0.064 0.064 0.192 0.128 0.192 0.192l382.496 613.059c13.607 20.732 7.768 48.589-13.031 62.199s-48.589 7.768-62.199-13.031l-353.29-566.201-195.388 190.060c-18.23 16.88-46.6 15.789-63.482-2.438-16.816-18.23-15.725-46.665 2.502-63.482l235.056-228.701c0.448-0.448 1.091-0.579 1.67-1.027z" />
<glyph unicode="&#xe615;" glyph-name="uni4B" d="M288.846 343.233h513.502c17.715 0 32.093 14.378 32.093 32.093s-14.378 32.093-32.093 32.093h-513.502c-17.715 0-32.093-14.378-32.093-32.093s14.378-32.093 32.093-32.093z" />
<glyph unicode="&#xe616;" glyph-name="uni36" d="M442.897 144.378c12.516-12.516 32.864-12.516 45.38 0l208.161 208.161c6.29 6.29 9.435 14.57 9.371 22.786 0 8.28-3.081 16.496-9.371 22.786l-208.161 208.161c-12.516 12.516-32.864 12.516-45.38 0s-12.516-32.864 0-45.38l185.567-185.567-185.567-185.567c-12.516-12.516-12.516-32.864 0-45.38z" />
<glyph unicode="&#xe617;" glyph-name="uniE617" horiz-adv-x="1022" d="M700.861 407.424c0 52.44-21.272 99.923-55.626 134.299-34.379 34.355-81.856 55.626-134.301 55.626-52.419 0-99.899-21.274-134.275-55.626-34.379-34.377-55.647-81.856-55.647-134.299 0-52.417 21.272-99.899 55.647-134.275s81.856-55.65 134.275-55.65c52.442 0 99.923 21.272 134.301 55.65 34.355 34.379 55.626 81.856 55.626 134.275z" />
<glyph unicode="&#xe618;" glyph-name="uni5E" d="M641.879 214.857c35.433 0 64.189 28.756 64.189 64.189v256.751c0 35.433-28.756 64.189-64.189 64.189h-256.751c-35.433 0-64.189-28.756-64.189-64.189v-256.751c0-35.433 28.756-64.189 64.189-64.189h256.751z" />
<glyph unicode="&#xe619;" glyph-name="uni4D" d="M322.544 152.274c12.516-12.516 32.864-12.516 45.38 0l177.672 177.672 177.672-177.672c12.516-12.516 32.864-12.516 45.38 0s12.516 32.864 0 45.38l-177.672 177.672 177.672 177.672c12.516 12.516 12.516 32.864 0 45.38s-32.864 12.516-45.38 0l-177.672-177.672-177.672 177.672c-12.516 12.516-32.864 12.516-45.38 0s-12.516-32.864 0-45.38l177.672-177.672-177.672-177.672c-12.516-12.516-12.516-32.864 0-45.38z" />
<glyph unicode="&#xe61a;" glyph-name="ic_star_24px" d="M513.502 160.512l264.454-159.615-70.178 300.827 233.644 202.405-307.673 26.102-120.244 283.711-120.244-283.711-307.673-26.102 233.644-202.405-70.178-300.827z" />
<glyph unicode="&#xe61b;" glyph-name="uniE082" d="M256.751 294.643c0-49.232 123.883-75.357 256.816-79.015 0-0.256-0.064-0.515-0.064-0.771v-192.564c0-35.433 14.378-128.375 32.093-128.375s32.093 92.945 32.093 128.375v192.564c0 0.256-0.064 0.515-0.064 0.771 132.934 3.66 256.816 29.783 256.816 79.015 0 52.249-47.306 90.376-128.375 110.916v332.429c81.069 27.473 128.375 71.698 128.375 103.151 0 106.36-577.691 106.36-577.691 0 0-34.598 47.306-77.86 128.375-104.306v-331.274c-81.069-20.604-128.375-58.667-128.375-110.916z" />
<glyph unicode="&#xe61c;" glyph-name="uniE02C" d="M242.020 414.803c41.016-41.016 101.353-55.394 156.233-39.026l-303.224 303.159c-9.886 9.886-15.085 24.2-15.085 41.272 0 28.244 14.762 64.317 34.341 83.894 25.675 25.675 95.319 54.111 127.734 21.887l303.159-303.224c4.428 14.826 6.677 30.232 6.677 45.638 0 41.851-16.24 81.069-45.703 110.596l-205.594 205.53c-61.748 61.748-184.476 38.578-244.877-21.823-35.046-35.046-56.805-89.349-56.805-141.726 0-40.696 13.351-76.449 37.551-100.646l205.594-205.53zM785.050 400.039c-41.016 41.016-101.353 55.394-156.233 39.026l303.224-303.224c9.886-9.886 15.085-24.136 15.085-41.272 0-28.244-14.762-64.317-34.341-83.894-25.675-25.675-95.319-54.111-127.734-21.887l-303.159 303.288c-4.428-14.826-6.677-30.232-6.677-45.638 0-41.851 16.24-81.069 45.703-110.596l205.53-205.53c61.748-61.748 184.476-38.578 244.877 21.823 35.046 35.046 56.805 89.349 56.805 141.726 0 40.696-13.351 76.449-37.551 100.646l-205.53 205.53zM294.141 626.88c-8.216-8.152-12.708-19.065-12.708-30.618s4.492-22.402 12.644-30.554l377.681-377.746c16.88-16.816 44.289-16.816 61.172 0 8.216 8.152 12.644 19.065 12.644 30.618s-4.492 22.402-12.644 30.554l-377.681 377.746c-16.816 16.816-44.289 16.816-61.108 0z" />
<glyph unicode="&#xe61d;" glyph-name="ic_link_24px" d="M166.889 386.025c0 73.173 59.481 132.655 132.655 132.655h171.168v81.304h-171.168c-118.105 0-213.96-95.854-213.96-213.96s95.854-213.96 213.96-213.96h171.168v81.304h-171.168c-73.173 0-132.655 59.481-132.655 132.655zM342.335 343.233h342.335v85.583h-342.335v-85.583zM727.462 599.983h-171.168v-81.304h171.168c73.173 0 132.655-59.481 132.655-132.655s-59.481-132.655-132.655-132.655h-171.168v-81.304h171.168c118.105 0 213.96 95.854 213.96 213.96s-95.854 213.96-213.96 213.96z" />
<glyph unicode="&#xe61e;" glyph-name="uniE065" d="M162.973 135.2c-18.806-48.589-50.708-112.136-104.818-177.095 102.636 0 234.671 13.479 336.409 75.87 38.255-7.381 77.924-11.681 118.94-11.681 283.582 0 513.502 186.786 513.502 417.221s-229.921 417.221-513.502 417.221-513.502-186.786-513.502-417.221c0-120.159 62.903-228.188 162.973-304.315z" />
<glyph unicode="&#xe61f;" glyph-name="ic_description_24px" d="M599.086 835.339h-342.335c-47.071 0-85.156-38.514-85.156-85.583l-0.427-684.671c0-47.071 38.084-85.583 85.156-85.583h513.931c47.071 0 85.583 38.514 85.583 85.583v513.502l-256.751 256.751zM684.671 150.669h-342.335v85.583h342.335v-85.583zM684.671 321.836h-342.335v85.583h342.335v-85.583zM556.295 535.796v235.356l235.356-235.356h-235.356z" />
<glyph unicode="&#xe620;" glyph-name="ic_menu_24px" d="M128.375 129.274h770.254v85.583h-770.254v-85.583zM128.375 343.233h770.254v85.583h-770.254v-85.583zM128.375 642.776v-85.583h770.254v85.583h-770.254z" />
<glyph unicode="&#xe621;" glyph-name="ic_info_24px" d="M513.502 813.944c-236.211 0-427.919-191.708-427.919-427.919s191.708-427.919 427.919-427.919 427.919 191.708 427.919 427.919-191.708 427.919-427.919 427.919zM556.295 172.066h-85.583v256.751h85.583v-256.751zM556.295 514.401h-85.583v85.583h85.583v-85.583z" />
<glyph unicode="&#xe622;" glyph-name="ic_person_black_24px" d="M513.502 386.025c94.569 0 171.168 76.598 171.168 171.168s-76.598 171.168-171.168 171.168-171.168-76.598-171.168-171.168 76.598-171.168 171.168-171.168zM513.502 300.442c-114.254 0-342.335-57.341-342.335-171.168v-85.583h684.671v85.583c0 113.826-228.081 171.168-342.335 171.168z" />
<glyph unicode="&#xe623;" glyph-name="ic_language_black_24px" d="M513.075 835.34c-236.211 0-427.491-191.708-427.491-427.919s191.28-427.919 427.491-427.919c236.64 0 428.346 191.708 428.346 427.919s-191.708 427.919-428.346 427.919zM809.623 578.59h-126.236c-13.692 53.489-33.379 104.839-59.054 152.339 78.738-26.958 144.21-81.733 185.29-152.339zM513.502 748.045c35.518-51.35 63.333-108.265 81.733-169.455h-163.465c18.401 61.193 46.215 118.105 81.733 169.455zM182.294 321.837c-6.848 27.388-11.126 56.058-11.126 85.583s4.279 58.198 11.126 85.583h144.636c-3.422-28.244-5.991-56.485-5.991-85.583s2.569-57.341 5.991-85.583h-144.636zM217.383 236.253h126.236c13.692-53.489 33.379-104.839 59.054-152.339-78.738 26.958-144.21 81.304-185.29 152.339zM343.619 578.59h-126.236c41.080 71.034 106.552 125.379 185.29 152.339-25.675-47.498-45.359-98.849-59.054-152.339zM513.502 66.797c-35.518 51.35-63.333 108.265-81.733 169.455h163.465c-18.401-61.193-46.215-118.105-81.733-169.455zM613.636 321.837h-200.266c-3.852 28.244-6.848 56.485-6.848 85.583s2.996 57.768 6.848 85.583h200.266c3.852-27.814 6.848-56.485 6.848-85.583s-2.996-57.341-6.848-85.583zM624.335 83.913c25.675 47.498 45.359 98.849 59.054 152.339h126.236c-41.080-70.607-106.552-125.379-185.29-152.339zM700.076 321.837c3.422 28.244 5.991 56.485 5.991 85.583s-2.569 57.341-5.991 85.583h144.636c6.848-27.388 11.126-56.058 11.126-85.583s-4.279-58.198-11.126-85.583h-144.636z" />
<glyph unicode="&#xe624;" glyph-name="ic_room_black_24px" d="M513.502 813.944c-165.605 0-299.544-133.94-299.544-299.544 0-224.657 299.544-556.295 299.544-556.295s299.544 331.638 299.544 556.295c0 165.605-133.94 299.544-299.544 299.544zM513.502 407.421c-59.054 0-106.979 47.928-106.979 106.979s47.928 106.979 106.979 106.979 106.979-47.928 106.979-106.979-47.928-106.979-106.979-106.979z" />
<glyph unicode="&#xe625;" glyph-name="ic_phone_black_24px" d="M283.282 437.803c61.62-121.101 160.898-219.951 281.998-281.998l94.143 94.143c11.553 11.553 28.671 15.405 43.649 10.27 47.928-15.832 99.704-24.392 152.767-24.392 23.536 0 42.793-19.257 42.793-42.793v-149.345c0-23.536-19.257-42.793-42.793-42.793-401.816 0-727.462 325.646-727.462 727.462 0 23.536 19.257 42.793 42.793 42.793h149.771c23.536 0 42.793-19.257 42.793-42.793 0-53.489 8.557-104.839 24.392-152.767 4.708-14.978 1.283-31.666-10.697-43.649l-94.143-94.143z" />
<glyph unicode="&#xe626;" glyph-name="ic_email_black_24px" d="M855.84 749.756h-684.671c-47.071 0-85.156-38.514-85.156-85.583l-0.427-513.502c0-47.071 38.514-85.583 85.583-85.583h684.671c47.071 0 85.583 38.514 85.583 85.583v513.502c0 47.071-38.514 85.583-85.583 85.583zM855.84 578.59l-342.335-213.96-342.335 213.96v85.583l342.335-213.96 342.335 213.96v-85.583z" />
<glyph unicode="&#xe627;" glyph-name="ic_perm_phone_msg_black_24px" d="M855.838 236.254c-53.489 0-104.839 8.557-152.767 24.392-14.978 4.708-31.666 1.283-43.649-10.27l-94.143-94.143c-121.101 61.62-220.378 160.47-281.998 281.571l94.143 94.569c11.983 11.553 15.405 28.244 10.697 43.219-15.832 47.928-24.392 99.278-24.392 152.767 0 23.536-19.257 42.793-42.793 42.793h-149.771c-23.536 0-42.793-19.257-42.793-42.793 0-401.816 325.646-727.462 727.462-727.462 23.536 0 42.793 19.257 42.793 42.793v149.771c0 23.536-19.257 42.793-42.793 42.793zM513.502 771.152v-427.919l128.375 128.375h256.751v299.544h-385.127z" />
<glyph unicode="&#xe628;" glyph-name="uni63" d="M930.724 888.829h-834.442c-35.433 0-64.189-28.756-64.189-64.189v-834.442c0-35.433 28.756-64.189 64.189-64.189h834.442c35.433 0 64.189 28.756 64.189 64.189v834.442c0 35.433-28.756 64.189-64.189 64.189zM930.724-9.8h-834.442v834.442h834.442v-834.442zM256.751 375.327h513.502c17.715 0 32.093 14.378 32.093 32.093s-14.378 32.093-32.093 32.093h-513.502c-17.715 0-32.093-14.378-32.093-32.093s14.378-32.093 32.093-32.093zM256.751 567.89h513.502c17.715 0 32.093 14.378 32.093 32.093s-14.378 32.093-32.093 32.093h-513.502c-17.715 0-32.093-14.378-32.093-32.093s14.378-32.093 32.093-32.093zM256.751 182.763h513.502c17.715 0 32.093 14.378 32.093 32.093s-14.378 32.093-32.093 32.093h-513.502c-17.715 0-32.093-14.378-32.093-32.093s14.378-32.093 32.093-32.093z" />
<glyph unicode="&#xe629;" glyph-name="uniE00F" d="M962.817 664.172h-128.375c0 0-37.1 0-64.189 64.189-13.799 32.672-28.756 64.189-64.189 64.189h-256.751c-35.433 0-50.838-31.325-64.189-64.189-26.059-64.189-64.189-64.189-64.189-64.189h-64.189c0 35.433-28.756 64.189-64.189 64.189h-64.189c-35.433 0-64.189-28.756-64.189-64.189-35.433 0-64.189-28.756-64.189-64.189v-513.502c0-35.433 28.756-64.189 64.189-64.189h898.631c35.433 0 64.189 28.756 64.189 64.189v513.502c0 35.433-28.756 64.189-64.189 64.189zM962.817 86.481h-898.631v256.751h292.055c15.725-108.734 108.35-192.564 221.448-192.564 115.859 0 210.087 88.002 222.219 200.588h162.909v-264.775zM417.221 375.327c0 88.514 72.018 160.47 160.47 160.47s160.47-71.954 160.47-160.47c0-88.45-72.018-160.47-160.47-160.47s-160.47 72.018-160.47 160.47zM799.139 407.421c-15.725 108.734-108.35 192.564-221.448 192.564s-205.723-83.83-221.448-192.564h-292.055v192.564h256.751c37.487 0 92.43 27.281 123.626 104.242 5.327 13.031 8.923 20.22 11.297 24.136h243.4c4.3-7.061 9.822-20.092 11.876-24.968 41.53-98.4 110.017-103.407 123.304-103.407h128.375v-192.564h-163.68zM128.375 503.061c0-17.724 14.369-32.093 32.093-32.093s32.093 14.369 32.093 32.093c0 17.724-14.369 32.093-32.093 32.093s-32.093-14.369-32.093-32.093z" />
<glyph unicode="&#xe62a;" glyph-name="uniE024" d="M962.817 920.924h-898.631c-35.433 0-64.189-28.756-64.189-64.189v-898.631c0-35.433 28.756-64.189 64.189-64.189h898.631c35.433 0 64.189 28.756 64.189 64.189v898.631c0 35.433-28.756 64.189-64.189 64.189zM192.564 343.233v-128.375h-128.375v128.375h128.375zM64.189 471.608v128.375h128.375v-128.375h-128.375zM256.751 279.045h513.502v-320.939h-513.502v320.939zM770.254 343.233h-513.502v513.502h513.502v-513.502zM834.442 343.233h128.375v-128.375h-128.375v128.375zM834.442 471.608v128.375h128.375v-128.375h-128.375zM834.442 728.361v128.375h128.375v-128.375h-128.375zM192.564 728.361h-128.375v128.375h128.375v-128.375zM64.189 86.481h128.375v-128.375h-128.375v128.375zM834.442 86.481h128.375v-128.375h-128.375v128.375z" />
<glyph unicode="&#xe62b;" glyph-name="uniE0E2" d="M966.605 226.475c-174.784-174.719-459.2-174.848-633.984 0-84.6 84.535-131.136 197.121-131.136 317.024s46.6 232.489 131.072 316.96c12.516 12.516 12.516 32.864 0 45.38s-32.864 12.516-45.38 0c-96.666-96.602-149.878-225.3-149.878-362.341s53.276-265.802 149.878-362.405c81.584-81.648 184.155-129.338 290.514-144.295v-78.695h-96.282c-17.715 0-32.093-14.378-32.093-32.093s14.378-32.093 32.093-32.093h256.751c17.715 0 32.093 14.378 32.093 32.093s-14.378 32.093-32.093 32.093h-96.282v73.432c2.569-0.064 5.135-0.384 7.704-0.384 131.2 0 262.464 49.939 362.405 149.878 12.516 12.516 12.516 32.864 0 45.38s-32.864 12.58-45.38 0.064zM649.581 920.924c-208.482 0-377.425-169.007-377.425-377.425s169.007-377.425 377.425-377.425 377.425 168.943 377.425 377.425-169.007 377.425-377.425 377.425zM649.581 230.262c-172.73 0-313.237 140.507-313.237 313.237s140.507 313.237 313.237 313.237c172.73 0 313.237-140.507 313.237-313.237s-140.507-313.237-313.237-313.237z" />
<glyph unicode="&#xe62c;" glyph-name="ic_remove_circle_outline_black_24px" d="M299.544 428.817v-85.583h427.919v85.583h-427.919zM513.502 813.944c-236.211 0-427.919-191.708-427.919-427.919s191.708-427.919 427.919-427.919 427.919 191.708 427.919 427.919-191.708 427.919-427.919 427.919zM513.502 43.69c-188.712 0-342.335 153.623-342.335 342.335s153.623 342.335 342.335 342.335 342.335-153.623 342.335-342.335-153.623-342.335-342.335-342.335z" />
<glyph unicode="&#xe62d;" glyph-name="ic_add_circle_outline_black_24px" d="M556.295 599.983h-85.583v-171.168h-171.168v-85.583h171.168v-171.168h85.583v171.168h171.168v85.583h-171.168v171.168zM513.502 813.944c-236.211 0-427.919-191.708-427.919-427.919s191.708-427.919 427.919-427.919 427.919 191.708 427.919 427.919-191.708 427.919-427.919 427.919zM513.502 43.69c-188.712 0-342.335 153.623-342.335 342.335s153.623 342.335 342.335 342.335 342.335-153.623 342.335-342.335-153.623-342.335-342.335-342.335z" />
<glyph unicode="&#xe62e;" glyph-name="ic_indeterminate_check_box_black_24px" d="M813.046 771.152h-599.086c-47.071 0-85.583-38.514-85.583-85.583v-599.086c0-47.071 38.514-85.583 85.583-85.583h599.086c47.071 0 85.583 38.514 85.583 85.583v599.086c0 47.071-38.514 85.583-85.583 85.583zM727.462 343.233h-427.919v85.583h427.919v-85.583z" />
<glyph unicode="&#xe62f;" glyph-name="ic_add_box_black_24px" d="M813.046 771.152h-599.086c-47.498 0-85.583-38.514-85.583-85.583v-599.086c0-47.071 38.084-85.583 85.583-85.583h599.086c47.071 0 85.583 38.514 85.583 85.583v599.086c0 47.071-38.514 85.583-85.583 85.583zM727.462 343.233h-171.168v-171.168h-85.583v171.168h-171.168v85.583h171.168v171.168h85.583v-171.168h171.168v-85.583z" />
<glyph unicode="&#xe630;" glyph-name="widgets-3angle" d="M0 920.924v-1027.006h1027.006z" />
<glyph unicode="&#xe631;" glyph-name="uniE066" d="M895.742 542.535c5.65-25.419 8.923-51.542 8.923-78.373 0-207.198-175.875-379.928-407.465-417.028 48.976-19.769 103.855-31.325 162.331-31.325 55.138 0 107.194 10.142 154.179 27.793 59.502-20.284 124.46-25.547 178.186-25.547-27.921 33.507-47.306 66.371-61.172 95.255 59.566 53.148 96.282 123.562 96.282 201.1 0 91.66-51.158 173.371-131.264 228.124zM808.382 464.163c0 181.331-180.946 328.385-404.191 328.385s-404.191-147.054-404.191-328.385c0-94.612 49.488-179.597 128.311-239.549-14.826-38.255-39.925-88.258-82.481-139.416 80.749 0 184.732 10.59 264.775 59.758 30.103-5.842 61.364-9.243 93.585-9.243 223.246 0.064 404.191 147.054 404.191 328.449z" />
<glyph unicode="&#xe632;" glyph-name="uniE02B" d="M306.754 790.751c37.551 37.551 98.592 37.551 136.143 0l344.24-344.24c16.947 64.124 1.091 135.116-49.168 185.375l-226.968 226.904c-75.227 75.227-197.121 75.227-272.349 0l-51.030-51.030c-75.227-75.227-75.227-197.121 0-272.349l226.968-226.968c50.259-50.259 121.25-66.114 185.375-49.168l-344.24 344.24c-37.551 37.551-37.551 98.592 0 136.143l51.030 51.094zM516.006-43.948c75.227-75.227 197.121-75.227 272.349 0l51.030 51.094c75.227 75.227 75.227 197.121 0 272.349l-226.968 226.84c-50.259 50.259-121.25 66.114-185.375 49.168l344.24-344.24c37.551-37.551 37.551-98.592 0-136.143l-51.094-51.094c-37.551-37.551-98.592-37.551-136.143 0l-344.175 344.304c-16.947-64.124-1.091-135.116 49.168-185.375l226.968-226.904z" />
<glyph unicode="&#xe633;" glyph-name="ic_keyboard_arrow_up_black_24px" d="M317.088 240.105l196.415 195.986 196.415-195.986 60.337 60.337-256.751 256.751-256.751-256.751z" />
<glyph unicode="&#xe634;" glyph-name="ic_keyboard_arrow_right_black_24px1" d="M367.583 200.309l195.986 196.415-195.986 196.415 60.337 60.337 256.751-256.751-256.751-256.751z" />
<glyph unicode="&#xe635;" glyph-name="ic_keyboard_arrow_down_black_24px1" d="M317.088 564.038l196.415-195.986 196.415 195.986 60.337-60.337-256.751-256.751-256.751 256.751z" />
<glyph unicode="&#xe636;" glyph-name="ic_keyboard_arrow_left_black_24px" d="M659.423 211.006l-195.986 196.415 195.986 196.415-60.337 60.337-256.751-256.751 256.751-256.751z" />
<glyph unicode="&#xe637;" glyph-name="ic_arrow_back_black_24px" d="M855.838 428.817h-520.778l239.207 239.207-60.764 60.337-342.335-342.335 342.335-342.335 60.337 60.337-238.779 239.207h520.778v85.583z" />
<glyph unicode="&#xe638;" glyph-name="ic_arrow_forward_black_24px" d="M513.502 728.361l-60.337-60.337 238.779-239.207h-520.778v-85.583h520.778l-238.779-239.207 60.337-60.337 342.335 342.335z" />
<glyph unicode="&#xe639;" glyph-name="ic_textsms_black_24px" d="M855.838 813.944h-684.671c-47.071 0-85.156-38.514-85.156-85.583l-0.427-770.254 171.168 171.168h599.086c47.071 0 85.583 38.514 85.583 85.583v513.502c0 47.071-38.514 85.583-85.583 85.583zM385.127 428.817h-85.583v85.583h85.583v-85.583zM556.295 428.817h-85.583v85.583h85.583v-85.583zM727.462 428.817h-85.583v85.583h85.583v-85.583z" />
<glyph unicode="&#xe63a;" glyph-name="ic_library_books_black_24px" d="M171.168 642.776h-85.583v-599.086c0-47.071 38.514-85.583 85.583-85.583h599.086v85.583h-599.086v599.086zM855.838 813.944h-513.502c-47.071 0-85.583-38.514-85.583-85.583v-513.502c0-47.071 38.514-85.583 85.583-85.583h513.502c47.071 0 85.583 38.514 85.583 85.583v513.502c0 47.071-38.514 85.583-85.583 85.583zM813.046 428.817h-427.919v85.583h427.919v-85.583zM641.879 257.649h-256.751v85.583h256.751v-85.583zM813.046 599.983h-427.919v85.583h427.919v-85.583z" />
<glyph unicode="&#xe63b;" glyph-name="ic_person_outline_black_24px" d="M513.502 647.055c49.637 0 89.864-40.224 89.864-89.864s-40.224-89.864-89.864-89.864-89.864 40.224-89.864 89.864 40.224 89.864 89.864 89.864zM513.502 261.929c127.092 0 261.031-62.476 261.031-89.864v-47.071h-522.061v47.071c0 27.388 133.94 89.864 261.031 89.864zM513.502 728.361c-94.569 0-171.168-76.598-171.168-171.168s76.598-171.168 171.168-171.168 171.168 76.598 171.168 171.168-76.598 171.168-171.168 171.168zM513.502 343.233c-114.254 0-342.335-57.341-342.335-171.168v-128.375h684.671v128.375c0 113.826-228.081 171.168-342.335 171.168z" />
<glyph unicode="&#xe63c;" glyph-name="ic_content_copy_black_48px" d="M684.671 878.132h-513.502c-47.071 0-85.583-38.514-85.583-85.583v-599.086h85.583v599.086h513.502v85.583zM813.046 706.965h-470.711c-47.071 0-85.583-38.514-85.583-85.583v-599.086c0-47.071 38.514-85.583 85.583-85.583h470.711c47.071 0 85.583 38.514 85.583 85.583v599.086c0 47.071-38.514 85.583-85.583 85.583zM813.046 22.293h-470.711v599.086h470.711v-599.086z" />
<glyph unicode="&#xe63d;" glyph-name="ic_format_align_left_black_48px" d="M641.879 279.045h-513.502v-85.583h513.502v85.583zM641.879 621.379h-513.502v-85.583h513.502v85.583zM128.375 364.629h770.254v85.583h-770.254v-85.583zM128.375 22.293h770.254v85.583h-770.254v-85.583zM128.375 792.547v-85.583h770.254v85.583h-770.254z" />
<glyph unicode="&#xe63e;" glyph-name="ic_chat_bubble_outline_black_48px" d="M855.838 835.34h-684.671c-47.071 0-85.583-38.514-85.583-85.583v-770.254l171.168 171.168h599.086c47.071 0 85.583 38.514 85.583 85.583v513.502c0 47.071-38.514 85.583-85.583 85.583zM855.838 236.253h-599.086l-85.583-85.583v599.086h684.671v-513.502z" />
<glyph unicode="&#xe63f;" glyph-name="email" d="M855.838 578.59l-342.335-213.96-342.335 213.96v85.583l342.335-213.96 342.335 213.96zM855.838 749.756h-684.671c-47.498 0-85.583-38.084-85.583-85.583v-513.502c0-47.071 38.514-85.583 85.583-85.583h684.671c47.071 0 85.583 38.514 85.583 85.583v513.502c0 47.498-38.514 85.583-85.583 85.583z" />
<glyph unicode="&#xe640;" glyph-name="calendar-check" d="M813.046 86.481h-599.086v470.711h599.086zM813.046 771.152h-42.793v85.583h-85.583v-85.583h-342.335v85.583h-85.583v-85.583h-42.793c-47.498 0-85.583-38.514-85.583-85.583v-599.086c0-47.071 38.514-85.583 85.583-85.583h599.086c47.071 0 85.583 38.514 85.583 85.583v599.086c0 47.071-38.514 85.583-85.583 85.583zM707.35 426.25l-45.359 45.359-208.825-208.825-90.719 90.719-45.359-45.359 136.079-136.079 254.184 254.184z" />
<glyph unicode="&#xe641;" glyph-name="ic_favorite_black_24px" d="M513.502 14.805l-62.049 56.485c-220.378 199.838-365.871 331.638-365.871 493.391 0 131.799 103.556 235.356 235.356 235.356 74.459 0 145.919-34.662 192.564-89.434 46.644 54.772 118.105 89.434 192.564 89.434 131.799 0 235.356-103.556 235.356-235.356 0-161.754-145.493-293.552-365.871-493.818l-62.049-56.058z" />
<glyph unicode="&#xe642;" glyph-name="calendar-clock" d="M641.879 343.233h64.189v-120.674l104.413-60.337-32.093-55.629-136.506 78.738v157.902zM813.046 557.194h-599.086v-470.711h199.838c-18.401 38.941-28.671 82.589-28.671 128.375 0 165.605 133.94 299.544 299.544 299.544 45.788 0 89.434-10.27 128.375-28.671v71.463zM213.96 0.898c-47.498 0-85.583 38.514-85.583 85.583v599.086c0 47.498 38.084 85.583 85.583 85.583h42.793v85.583h85.583v-85.583h342.335v85.583h85.583v-85.583h42.793c47.071 0 85.583-38.514 85.583-85.583v-261.031c53.063-53.919 85.583-127.948 85.583-209.681 0-165.605-133.94-299.544-299.544-299.544-81.733 0-155.763 32.523-209.681 85.583h-261.031zM684.671 422.398c-114.683 0-207.54-92.86-207.54-207.54s92.86-207.54 207.54-207.54c114.683 0 207.54 92.86 207.54 207.54s-92.86 207.54-207.54 207.54z" />
<glyph unicode="&#xe643;" glyph-name="email-outline" d="M855.838 749.756h-684.671c-47.071 0-85.583-38.514-85.583-85.583v-513.502c0-47.071 38.514-85.583 85.583-85.583h684.671c47.071 0 85.583 38.514 85.583 85.583v513.502c0 47.071-38.514 85.583-85.583 85.583zM855.838 150.67h-684.671v427.919l342.335-213.96 342.335 213.96v-427.919zM855.838 664.172l-342.335-213.96-342.335 213.96h684.671z" />
<glyph unicode="&#xe644;" glyph-name="image-filter-vintage" d="M513.502 214.857c-94.569 0-171.168 76.598-171.168 171.168s76.598 171.168 171.168 171.168c94.569 0 171.168-76.598 171.168-171.168s-76.598-171.168-171.168-171.168zM800.209 368.908c-11.983 6.848-24.392 12.409-36.801 17.118 12.409 4.708 24.819 10.27 36.801 17.118 82.16 47.071 127.948 132.655 128.375 222.090-76.598 44.076-174.163 47.498-256.751 0-11.983-6.848-23.109-14.978-33.379-23.109 2.139 13.266 3.422 26.958 3.422 40.653 0 94.999-51.779 177.586-128.375 222.090-76.598-44.502-128.375-127.092-128.375-222.090 0-13.692 1.283-27.388 3.422-40.653-10.27 8.557-21.396 16.688-33.379 23.536-82.16 47.498-179.726 44.076-256.751 0 0-88.579 45.788-175.446 128.375-222.090 11.983-6.848 24.392-12.409 36.801-17.544-12.409-4.279-24.819-9.843-36.801-16.688-82.16-47.498-127.948-133.083-128.375-222.090 76.598-44.076 174.163-47.498 256.751 0 11.983 6.848 23.109 14.978 33.379 23.109-2.139-13.692-3.422-27.388-3.422-41.080 0-94.999 51.779-177.586 128.375-222.090 76.598 44.502 128.375 127.092 128.375 222.090 0 13.692-1.283 27.388-3.422 40.653 10.27-8.557 21.396-16.261 33.379-23.109 82.16-47.498 179.726-44.076 256.751 0-0.427 89.434-46.215 175.020-128.375 222.090z" />
<glyph unicode="&#xe645;" glyph-name="multiplication" d="M470.711 771.152h85.583v-311.098l269.161 155.335 42.793-74.029-269.161-155.335 269.589-155.763-42.793-74.029-269.589 156.19v-311.525h-85.583v311.098l-270.017-155.335-42.793 74.029 270.017 155.335-268.733 155.763 42.793 74.029 268.733-155.335v310.669z" />
<glyph unicode="&#xe646;" glyph-name="ic_check_black_24px" d="M385.127 207.583l-178.442 178.442-60.764-60.337 239.207-239.207 513.502 513.502-60.337 60.337z" />
<glyph unicode="&#xe647;" glyph-name="uni5A" d="M834.442 86.481h-641.879v641.879h473.449l40.053 64.189h-513.502c-35.433 0-64.189-28.756-64.189-64.189v-641.879c0-35.433 28.756-64.189 64.189-64.189h641.879c35.433 0 64.189 28.756 64.189 64.189v423.832l-64.189-102.892v-320.939zM942.47 849.419c-7.573 4.943-16.112 7.317-24.52 7.317-14.634 0-29.012-7.189-37.615-20.348l-348.925-503.362-134.988 154.050c-18.294 16.88-46.665 15.789-63.546-2.438s-15.725-46.665 2.502-63.482l162.266-185.182c1.027-1.67 2.633-2.953 3.916-4.492l4.108-4.687c0.515-0.448 1.155-0.579 1.67-1.027 1.283-1.027 2.054-2.438 3.401-3.401 2.761-1.798 5.778-2.953 8.795-4.044 0.707-0.256 1.283-0.707 1.99-0.899 4.492-1.475 9.179-2.374 13.799-2.374 0.192 0 0.384 0.128 0.579 0.128 12.196-0.064 24.328 4.428 33.248 14.058 1.67 1.798 2.31 3.98 3.66 5.97 0.064 0.064 0.128 0.128 0.192 0.192l382.496 551.823c13.543 20.732 7.768 48.589-13.031 62.199z" />
<glyph unicode="&#xe648;" glyph-name="uniE017" d="M932.586 856.415c-0.579 0-1.155 0-1.734 0-0.515 0-0.963 0.064-1.475 0h-403.549c-9.822-0.448-32.157-15.789-35.046-18.678l-472.038-472.038c-25.032-25.032-25.032-65.6 0-90.633l362.405-362.405c12.58-12.516 28.948-18.742 45.316-18.742s32.8 6.226 45.316 18.742l472.038 472.038c2.889 2.889 19.001 22.722 19.001 35.046v404.833c0.899 17.907-12.644 31.837-30.232 31.837zM898.631 431.748c-0.963-1.475-1.926-3.017-2.825-4.236l-469.277-469.406-362.405 362.212 469.406 469.406c1.283 0.899 2.761 1.862 4.3 2.825h360.8v-360.8zM770.254 696.265c0-17.724 14.369-32.093 32.093-32.093s32.093 14.369 32.093 32.093c0 17.724-14.369 32.093-32.093 32.093s-32.093-14.369-32.093-32.093z" />
<glyph unicode="&#xe649;" glyph-name="uni21" d="M545.597 22.293c17.715 0 32.093 14.378 32.093 32.093v628.592l137.747-137.747c12.516-12.516 32.864-12.516 45.38 0s12.516 32.864 0 45.38l-192.564 192.564c-2.953 2.953-6.482 5.263-10.398 6.869-7.832 3.273-16.688 3.273-24.52 0-3.852-1.542-7.253-3.852-10.206-6.741-0.064-0.064-0.128-0.064-0.256-0.128l-192.564-192.564c-12.516-12.516-12.516-32.864 0-45.38s32.864-12.516 45.38 0l137.811 137.747v-628.592c0-17.715 14.378-32.093 32.093-32.093z" />
<glyph unicode="&#xe64a;" glyph-name="uni22" d="M545.597 792.547c-17.715 0-32.093-14.378-32.093-32.093v-628.592l-137.747 137.747c-12.516 12.516-32.864 12.516-45.38 0s-12.516-32.864 0-45.38l192.564-192.564c0.064-0.064 0.192-0.064 0.256-0.192 2.889-2.825 6.354-5.199 10.142-6.741 7.832-3.273 16.688-3.273 24.52 0 3.916 1.606 7.445 3.98 10.398 6.933l192.564 192.564c12.516 12.516 12.516 32.864 0 45.38s-32.864 12.516-45.38 0l-137.747-137.747v628.592c0 17.715-14.378 32.093-32.093 32.093z" />
<glyph unicode="&#xe64b;" glyph-name="uni23" d="M128.375 439.387c0-4.108 0.899-8.216 2.502-12.132 1.542-3.788 3.852-7.189 6.677-10.078 0.064-0.128 0.128-0.256 0.192-0.384l192.564-192.564c12.516-12.516 32.864-12.516 45.38 0s12.516 32.864 0 45.38l-137.747 137.811h628.592c17.715 0 32.093 14.378 32.093 32.093s-14.378 32.093-32.093 32.093h-628.592l137.747 137.747c12.516 12.516 12.516 32.864 0 45.38s-32.864 12.516-45.38 0l-192.564-192.564c-0.064-0.064-0.128-0.256-0.192-0.32-2.825-2.889-5.135-6.29-6.677-10.078-1.67-3.916-2.502-8.088-2.502-12.26v0c0-0.064 0-0.064 0-0.128z" />
<glyph unicode="&#xe64c;" glyph-name="uni24" d="M128.375 439.515c0-17.715 14.378-32.093 32.093-32.093h628.592l-137.747-137.747c-12.516-12.516-12.516-32.864 0-45.38s32.864-12.516 45.38 0l192.564 192.564c2.953 2.953 5.327 6.482 6.933 10.398 1.542 3.916 2.438 8.024 2.438 12.132 0 0.064 0 0.064 0 0.128v0c0 4.172-0.835 8.344-2.502 12.26-1.606 3.916-3.98 7.445-6.933 10.398l-192.564 192.564c-12.516 12.516-32.864 12.516-45.38 0s-12.516-32.864 0-45.38l137.811-137.747h-628.592c-17.715 0-32.093-14.378-32.093-32.093z" />
<glyph unicode="&#xe64d;" glyph-name="uni42" d="M288.781 279.045h448.224c9.179 0 17.331 4.428 23.109 11.297l0.128-0.128c12.516 13.93 12.516 36.524 0 50.451l-224.593 248.857c-12.516 13.93-32.8 13.93-45.252 0-0.32-0.384-0.448-0.899-0.771-1.283l-224.144-247.573c-12.516-13.93-12.516-36.524 0-50.451 0.128-0.128 0.256-0.192 0.384-0.32 5.842-6.677 13.866-10.849 22.914-10.849z" />
<glyph unicode="&#xe64e;" glyph-name="uni43" d="M535.391 289.508c0.32 0.384 0.448 0.899 0.771 1.283l224.080 247.573c12.516 13.93 12.516 36.524 0 50.451-0.128 0.128-0.256 0.192-0.384 0.256-5.778 6.741-13.866 10.913-22.85 10.913h-448.224c-9.179 0-17.331-4.428-23.173-11.297l-0.128 0.128c-12.516-13.93-12.516-36.524 0-50.451l224.593-248.857c12.516-13.93 32.8-13.93 45.316 0z" />
<glyph unicode="&#xe64f;" glyph-name="uni44" d="M580.259 655.444l-248.857-224.657c-13.93-12.516-13.93-32.8 0-45.252 0.384-0.32 0.899-0.448 1.283-0.771l247.573-224.080c13.93-12.516 36.524-12.516 50.451 0 0.128 0.128 0.128 0.256 0.256 0.384 6.741 5.778 10.913 13.866 10.913 22.85v448.224c0 9.179-4.428 17.331-11.297 23.109l0.128 0.128c-13.93 12.516-36.524 12.516-50.451 0.064z" />
<glyph unicode="&#xe650;" glyph-name="uni45" d="M445.913 159.463l245.583 225.171c13.735 12.516 13.735 32.864 0 45.38-0.384 0.32-0.899 0.448-1.283 0.771l-244.299 224.657c-13.735 12.516-36.073 12.516-49.811 0-0.064-0.128-0.128-0.32-0.256-0.448-6.546-5.778-10.718-13.866-10.718-22.914v-449.315c0-9.179 4.364-17.331 11.105-23.173l-0.128-0.128c13.799-12.58 36.073-12.58 49.811 0z" />
<glyph unicode="&#xe651;" glyph-name="uni5B" d="M513.502 792.547c-212.719 0-385.127-172.408-385.127-385.127s172.408-385.127 385.127-385.127 385.127 172.408 385.127 385.127-172.408 385.127-385.127 385.127zM513.502 86.481c-176.966 0-320.939 143.973-320.939 320.939s143.973 320.939 320.939 320.939 320.939-143.973 320.939-320.939-143.973-320.939-320.939-320.939z" />
<glyph unicode="&#xe652;" glyph-name="uni59" d="M256.751 599.983v-449.315c0-35.433 28.756-64.189 64.189-64.189h449.315c35.433 0 64.189 28.756 64.189 64.189v449.315c0 35.433-28.756 64.189-64.189 64.189h-449.315c-35.433 0-64.189-28.756-64.189-64.189zM770.254 150.67h-449.315v449.315h449.315v-449.315zM417.221 343.233h96.282v-96.282c0-17.715 14.378-32.093 32.093-32.093s32.093 14.378 32.093 32.093v96.282h96.282c17.715 0 32.093 14.378 32.093 32.093s-14.378 32.093-32.093 32.093h-96.282v96.282c0 17.715-14.378 32.093-32.093 32.093s-32.093-14.378-32.093-32.093v-96.282h-96.282c-17.715 0-32.093-14.378-32.093-32.093s14.378-32.093 32.093-32.093z" />
<glyph unicode="&#xe653;" glyph-name="uni39" d="M760.819 429.501l-189.931 214.708c-12.58 12.58-33.056 12.58-45.638 0s-12.58-33.056 0-45.638l170.098-192.307-170.098-192.307c-12.58-12.58-12.58-33.056 0-45.638s33.056-12.58 45.638 0l189.931 214.708c6.418 6.418 9.499 14.826 9.371 23.237 0.064 8.408-2.953 16.816-9.371 23.237zM295.008 168.257c12.58-12.58 33.056-12.58 45.638 0l189.931 214.708c6.418 6.418 9.499 14.826 9.371 23.237 0.128 8.408-2.953 16.88-9.371 23.237l-189.867 214.773c-12.58 12.58-33.056 12.58-45.638 0s-12.58-33.056 0-45.638l170.098-192.307-170.098-192.307c-12.644-12.644-12.644-33.12-0.064-45.703z" />
<glyph unicode="&#xe654;" glyph-name="uniE033" d="M666.142 543.242l-157.26 318.629-157.26-318.629-351.621-51.094 254.44-248.022-60.081-350.209 314.521 165.347 314.521-165.347-60.081 350.209 254.44 248.022z" />
<glyph unicode="&#xe655;" glyph-name="play-circle" d="M427.919 187.471v385.127l256.751-192.564zM513.502 807.953c-236.211 0-427.919-191.708-427.919-427.919s191.708-427.919 427.919-427.919c236.211 0 427.919 191.708 427.919 427.919 0 236.64-192.564 427.919-427.919 427.919z" />
<glyph unicode="&#xe656;" glyph-name="pause-circle" d="M641.879 208.866h-85.583v342.335h85.583zM470.711 208.866h-85.583v342.335h85.583zM513.502 807.953c-236.211 0-427.919-191.708-427.919-427.919s191.708-427.919 427.919-427.919c236.211 0 427.919 191.708 427.919 427.919 0 236.64-192.564 427.919-427.919 427.919z" />
<glyph unicode="&#xe657;" glyph-name="volume-high" d="M599.086 761.311v-88.151c123.67-36.801 213.96-151.484 213.96-287.133s-90.291-249.905-213.96-286.706v-88.579c171.168 38.941 299.544 192.135 299.544 375.285s-128.375 336.344-299.544 375.285zM706.067 386.025c0 75.742-42.793 140.784-106.979 172.451v-343.619c64.189 30.383 106.979 95.854 106.979 171.168zM128.375 514.401v-256.751h171.168l213.96-213.96v684.671l-213.96-213.96h-171.168z" />
<glyph unicode="&#xe658;" glyph-name="volume-off" d="M513.502 728.361l-89.434-89.434 89.434-89.434zM182.721 771.152l-54.346-54.346 202.405-202.405h-202.405v-256.751h171.168l213.96-213.96v287.99l181.865-182.294c-28.671-21.823-60.764-39.797-96.282-50.067v-88.579c59.054 13.692 112.543 40.653 157.474 77.454l87.725-87.295 54.346 54.346-385.127 385.127zM813.046 386.025c0-40.224-8.557-77.881-23.109-112.97l64.616-64.616c27.814 53.063 44.076 113.4 44.076 177.586 0 183.15-128.375 336.344-299.544 375.285v-88.151c123.67-36.801 213.96-151.484 213.96-287.133zM706.067 386.025c0 75.742-42.793 140.784-106.979 172.451v-94.569l104.839-104.839c2.139 8.557 2.139 17.974 2.139 26.958z" />
<glyph unicode="&#xe659;" glyph-name="fullscreen" d="M213.96 685.569h213.96v-85.583h-128.375v-128.375h-85.583v213.96zM599.086 685.569h213.96v-213.96h-85.583v128.375h-128.375v85.583zM727.462 300.442h85.583v-213.96h-213.96v85.583h128.375v128.375zM427.919 172.066v-85.583h-213.96v213.96h85.583v-128.375h128.375z" />
<glyph unicode="&#xe65a;" glyph-name="fullscreen-exit" d="M599.086 300.442h213.96v-85.583h-128.375v-128.375h-85.583v213.96zM213.96 300.442h213.96v-213.96h-85.583v128.375h-128.375v85.583zM342.335 685.569h85.583v-213.96h-213.96v85.583h128.375v128.375zM813.046 557.194v-85.583h-213.96v213.96h85.583v-128.375h128.375z" />
<glyph unicode="&#xe65b;" glyph-name="link-variant" d="M453.167 347.084c17.544-16.688 17.544-44.076 0-60.764-16.688-16.688-44.076-16.688-60.764 0-83.443 83.443-83.443 219.095 0 302.538v0l151.484 151.484c83.443 83.443 219.095 83.443 302.538 0s83.443-219.095 0-302.538l-63.759-63.759c0.427 35.089-5.135 70.178-17.118 103.556l20.113 20.54c50.494 50.067 50.494 131.371 0 181.438-50.067 50.494-131.371 50.494-181.438 0l-151.055-151.055c-50.494-50.067-50.494-131.371 0-181.438zM573.839 528.523c16.688 16.688 44.076 16.688 60.764 0 83.443-83.443 83.443-219.095 0-302.538v0l-151.484-151.484c-83.443-83.443-219.095-83.443-302.538 0s-83.443 219.095 0 302.538l63.759 63.759c-0.427-35.089 5.135-70.178 17.118-103.984l-20.113-20.113c-50.494-50.067-50.494-131.371 0-181.438 50.067-50.494 131.371-50.494 181.438 0l151.055 151.055c50.494 50.067 50.494 131.371 0 181.438-17.544 16.688-17.544 44.076 0 60.764z" />
<glyph unicode="&#xe65c;" glyph-name="share-variant" d="M770.254 230.903c-32.523 0-61.62-12.839-83.873-32.949l-305.106 177.586c2.139 9.843 3.852 19.684 3.852 29.954s-1.713 20.113-3.852 29.954l301.683 175.875c23.109-21.396 53.489-34.662 87.295-34.662 71.034 0 128.375 57.341 128.375 128.375s-57.341 128.375-128.375 128.375c-71.034 0-128.375-57.341-128.375-128.375 0-10.27 1.713-20.113 3.852-29.954l-301.683-175.875c-23.109 21.396-53.489 34.662-87.295 34.662-71.034 0-128.375-57.341-128.375-128.375s57.341-128.375 128.375-128.375c33.806 0 64.189 13.266 87.295 34.662l304.679-177.586c-2.139-8.987-3.422-18.401-3.422-28.244 0-68.894 56.058-124.524 124.953-124.524s124.953 55.629 124.953 124.524c0 68.894-56.058 124.953-124.953 124.953z" />
<glyph unicode="&#xe65d;" glyph-name="share-thin-icon" d="M738.16 246.951c-32.832 0-62.615-12.772-85.305-33.152l-243.143 151.868c4.588 13.159 7.541 27.086 7.541 41.755s-3.017 28.596-7.541 41.691l243.175 151.932c22.722-20.38 52.441-33.152 85.273-33.152 70.831 0 128.375 57.544 128.375 128.375 0 70.767-57.544 128.375-128.375 128.375-70.767 0-128.375-57.608-128.375-128.375 0-14.666 3.017-28.596 7.509-41.755l-243.111-151.932c-22.722 20.38-52.473 33.216-85.337 33.216-70.799 0-128.375-57.608-128.375-128.375 0-70.831 57.576-128.375 128.375-128.375 32.832 0 62.615 12.708 85.337 33.152l243.111-151.932c-4.556-13.159-7.509-27.086-7.509-41.691 0-70.831 57.544-128.375 128.375-128.375 70.767 0 128.375 57.544 128.375 128.375 0 70.767-57.544 128.375-128.375 128.375zM738.16 760.454c35.433 0 64.189-28.756 64.189-64.189s-28.756-64.189-64.189-64.189c-35.401 0-64.189 28.756-64.189 64.189s28.788 64.189 64.189 64.189zM288.878 343.233c-35.433 0-64.189 28.756-64.189 64.189s28.756 64.189 64.189 64.189c35.401 0 64.189-28.756 64.189-64.189s-28.788-64.189-64.189-64.189zM738.16 54.388c-35.401 0-64.189 28.756-64.189 64.189s28.788 64.189 64.189 64.189c35.433 0 64.189-28.756 64.189-64.189s-28.756-64.189-64.189-64.189z" />
<glyph unicode="&#xe65e;" glyph-name="uniE030" d="M1026.491 549.983c-2.697 157.518-130.493 297.896-288.332 297.896-91.275 0-171.703-47.757-224.657-117.849-52.956 70.092-133.382 117.849-224.657 117.849-157.838 0-285.636-140.379-288.332-297.896h-0.515c0-0.963 0.192-1.862 0.192-2.825 0-0.707-0.192-1.411-0.192-2.182 0-4.428 1.091-7.768 1.283-12.004 14.122-401.431 508.175-566.009 508.175-566.009s501.308 164.385 516.135 565.367c0.256 4.492 1.411 8.024 1.411 12.644 0 0.771-0.192 1.475-0.192 2.182 0 1.027 0.192 1.862 0.192 2.825h-0.515zM961.47 534.706c-11.361-308.102-363.175-464.72-451.882-499.318-87.938 34.662-433.332 190.574-444.18 500.537-0.128 3.209-0.448 6.162-0.899 9.371 0.064 1.155 0.128 2.374 0.192 3.596 2.182 127.284 104.818 234.799 224.144 234.799 65.856 0 129.082-33.635 173.435-92.366 12.132-16.048 31.066-25.483 51.222-25.483s39.090 9.435 51.222 25.483c44.353 58.731 107.579 92.366 173.435 92.366 119.325 0 221.962-107.515 224.144-234.799 0-1.219 0.064-2.438 0.192-3.66-0.448-3.145-0.835-6.482-1.027-10.526z" />
<glyph unicode="&#xe65f;" glyph-name="checkbox-marked-circle-outline" d="M855.838 386.025c0-189.141-153.195-342.335-342.335-342.335s-342.335 153.195-342.335 342.335c0 189.141 153.195 342.335 342.335 342.335 32.523 0 64.189-4.708 94.143-13.266l67.184 67.184c-49.637 20.54-103.984 31.666-161.325 31.666-236.211 0-427.919-191.708-427.919-427.919s191.708-427.919 427.919-427.919c236.211 0 427.919 191.708 427.919 427.919zM338.484 468.186l-60.337-60.764 192.564-192.564 427.919 427.919-60.337 60.764-367.583-367.583-132.227 132.227z" />
<glyph unicode="&#xe660;" glyph-name="uniE015" d="M194.763 22.293c0-35.451 28.738-64.189 64.189-64.189s64.189 28.738 64.189 64.189c0 35.451-28.738 64.189-64.189 64.189s-64.189-28.738-64.189-64.189zM772.454 22.293c0-35.451 28.738-64.189 64.189-64.189s64.189 28.738 64.189 64.189c0 35.451-28.738 64.189-64.189 64.189s-64.189-28.738-64.189-64.189zM0.337 824.642c0-17.715 14.378-32.093 32.093-32.093h66.691l39.861-170.482 55.778-278.832c0-2.31 1.091-4.3 1.347-6.546l-32.672-146.99c-2.118-9.499 0.192-19.449 6.29-27.022 6.098-7.637 15.277-12.004 25.032-12.004h728.147c17.715 0 32.093 14.378 32.093 32.093s-14.378 32.093-32.093 32.093h-688.094l14.698 66.114c3.209-0.515 6.098-1.926 9.435-1.926h585.072c35.433 0 56.805 6.997 73.88 48.141l104.242 319.784c18.102 57.32-21.631 81.389-57.128 81.389h-770.254c-5.007 0-9.371-1.734-14.058-2.825l-24.904 106.424c-3.401 14.506-16.304 24.776-31.259 24.776h-92.11c-17.779 0-32.093-14.378-32.093-32.093zM196.046 664.172h764.157l-102.444-314.456c-1.219-2.761-2.246-4.751-3.017-6.098-2.118-0.192-5.455-0.384-10.718-0.384h-585.072v6.354l-1.219 6.226-61.684 308.359z" />
<glyph unicode="&#xe661;" glyph-name="uni64" d="M353.033 407.421h513.502c17.715 0 32.093 14.378 32.093 32.093s-14.378 32.093-32.093 32.093h-513.502c-17.715 0-32.093-14.378-32.093-32.093s14.378-32.093 32.093-32.093zM353.033 664.172h513.502c17.715 0 32.093 14.378 32.093 32.093s-14.378 32.093-32.093 32.093h-513.502c-17.715 0-32.093-14.378-32.093-32.093s14.378-32.093 32.093-32.093zM353.033 150.67h513.502c17.715 0 32.093 14.378 32.093 32.093s-14.378 32.093-32.093 32.093h-513.502c-17.715 0-32.093-14.378-32.093-32.093s14.378-32.093 32.093-32.093zM128.375 696.265c0-17.724 14.369-32.093 32.093-32.093s32.093 14.369 32.093 32.093c0 17.724-14.369 32.093-32.093 32.093s-32.093-14.369-32.093-32.093zM128.375 439.515c0-17.724 14.369-32.093 32.093-32.093s32.093 14.369 32.093 32.093c0 17.724-14.369 32.093-32.093 32.093s-32.093-14.369-32.093-32.093zM128.375 182.763c0-17.724 14.369-32.093 32.093-32.093s32.093 14.369 32.093 32.093c0 17.724-14.369 32.093-32.093 32.093s-32.093-14.369-32.093-32.093z" />
<glyph unicode="&#xe662;" glyph-name="uniE031" d="M1023.282 505.435c-7.573 23.237-27.665 40.181-51.8 43.713l-276.65 40.181-123.755 250.654c-10.849 21.951-33.12 35.817-57.576 35.817s-46.73-13.866-57.576-35.817l-123.691-250.654-276.65-40.181c-24.2-3.529-44.289-20.476-51.8-43.713-7.573-23.237-1.283-48.719 16.24-65.792l200.202-195.131-47.242-275.559c-4.108-24.070 5.778-48.397 25.547-62.775 11.105-8.152 24.328-12.26 37.679-12.26 10.206 0 20.476 2.438 29.847 7.381l247.444 130.109 247.444-130.109c9.371-4.943 19.641-7.381 29.847-7.381 13.287 0 26.574 4.108 37.743 12.26 19.769 14.378 29.655 38.706 25.547 62.775l-47.242 275.559 200.202 195.131c17.459 17.011 23.749 42.557 16.24 65.792zM737.84 266.914l52.956-308.808-277.292 145.77-277.292-145.77 52.956 308.808-224.337 218.688 310.027 45.060 138.645 280.95 138.645-280.95 310.027-45.060-224.337-218.688z" />
<glyph unicode="&#xe663;" glyph-name="cart" d="M727.462 129.274c-47.498 0-85.583-38.084-85.583-85.583 0-47.071 38.514-85.583 85.583-85.583s85.583 38.514 85.583 85.583c0 47.498-38.514 85.583-85.583 85.583zM42.793 813.944v-85.583h85.583l154.050-324.791-58.198-104.839c-6.418-11.983-10.27-26.102-10.27-41.080 0-47.071 38.514-85.583 85.583-85.583h513.502v85.583h-495.53c-5.991 0-10.697 4.708-10.697 10.697 0 2.139 0.427 3.852 1.283 5.135l38.514 69.751h318.8c32.093 0 60.337 17.974 74.886 44.076l153.195 276.863c2.996 6.848 5.135 14.122 5.135 21.396 0 23.536-19.257 42.793-42.793 42.793h-632.892l-40.224 85.583zM299.544 129.274c-47.498 0-85.583-38.084-85.583-85.583 0-47.071 38.514-85.583 85.583-85.583s85.583 38.514 85.583 85.583c0 47.498-38.514 85.583-85.583 85.583z" />
<glyph unicode="&#xe664;" glyph-name="truck" d="M770.254 107.878c-35.518 0-64.189 28.671-64.189 64.189s28.671 64.189 64.189 64.189c35.518 0 64.189-28.671 64.189-64.189s-28.671-64.189-64.189-64.189zM834.442 493.005l83.873-106.979h-190.851v106.979zM256.751 107.878c-35.518 0-64.189 28.671-64.189 64.189s28.671 64.189 64.189 64.189c35.518 0 64.189-28.671 64.189-64.189s-28.671-64.189-64.189-64.189zM855.838 557.194h-128.375v171.168h-599.086c-47.498 0-85.583-38.084-85.583-85.583v-470.711h85.583c0-71.034 57.341-128.375 128.375-128.375s128.375 57.341 128.375 128.375h256.751c0-71.034 57.341-128.375 128.375-128.375s128.375 57.341 128.375 128.375h85.583v213.96l-128.375 171.168z" />
<glyph unicode="&#xe665;" glyph-name="earth" d="M765.975 155.377c-11.126 34.232-43.219 59.481-81.304 59.481h-42.793v128.375c0 23.536-19.257 42.793-42.793 42.793h-256.751v85.583h85.583c23.536 0 42.793 19.257 42.793 42.793v85.583h85.583c47.071 0 85.583 38.514 85.583 85.583v17.544c125.379-50.494 213.96-173.307 213.96-317.088 0-89.008-34.232-169.885-89.864-230.648zM470.711 46.685c-169.028 20.967-299.544 164.75-299.544 339.34 0 26.531 3.422 52.206 8.987 76.598l204.973-204.973v-42.793c0-47.071 38.514-85.583 85.583-85.583zM513.502 813.944c-236.211 0-427.919-191.708-427.919-427.919s191.708-427.919 427.919-427.919c236.211 0 427.919 191.708 427.919 427.919s-191.708 427.919-427.919 427.919z" />
<glyph unicode="&#xe666;" glyph-name="key-variant" d="M941.422 129.274v-171.168h-171.168v128.375h-128.375v128.375h-128.375l-96.709 96.709c-23.536-7.274-48.354-11.126-74.459-11.126-141.641 0-256.751 115.109-256.751 256.751s115.109 256.751 256.751 256.751c141.641 0 256.751-115.109 256.751-256.751 0-26.102-3.852-50.923-11.126-74.459l353.462-353.462zM299.544 685.569c-47.071 0-85.583-38.514-85.583-85.583s38.514-85.583 85.583-85.583c47.071 0 85.583 38.514 85.583 85.583s-38.514 85.583-85.583 85.583z" />
<glyph unicode="&#xe667;" glyph-name="clipboard-account" d="M770.254 86.481h-513.502v59.908c0 85.583 171.168 132.655 256.751 132.655s256.751-47.071 256.751-132.655zM513.502 599.983c71.034 0 128.375-57.341 128.375-128.375s-57.341-128.375-128.375-128.375c-71.034 0-128.375 57.341-128.375 128.375s57.341 128.375 128.375 128.375zM513.502 771.152c23.536 0 42.793-19.257 42.793-42.793s-19.257-42.793-42.793-42.793c-23.536 0-42.793 19.257-42.793 42.793s19.257 42.793 42.793 42.793zM813.046 771.152h-178.871c-17.974 49.637-65.043 85.583-120.674 85.583s-102.7-35.945-120.674-85.583h-178.871c-47.071 0-85.583-38.514-85.583-85.583v-599.086c0-47.071 38.514-85.583 85.583-85.583h599.086c47.071 0 85.583 38.514 85.583 85.583v599.086c0 47.071-38.514 85.583-85.583 85.583z" />
<glyph unicode="&#xe668;" glyph-name="newspaper" d="M855.838 428.817h-684.671v128.375h684.671zM855.838 343.233h-299.544v42.793h299.544zM855.838 257.649h-299.544v42.793h299.544zM855.838 172.066h-299.544v42.793h299.544zM855.838 86.481h-299.544v42.793h299.544zM513.502 86.481h-342.335v299.544h342.335zM869.96 699.691l-71.034 71.463-71.463-71.463-71.463 71.463-71.034-71.463-71.463 71.463-71.463-71.463-71.034 71.463-71.463-71.463-71.463 71.463-71.034-71.463-71.463 71.463v-684.671c0-47.071 38.514-85.583 85.583-85.583h684.671c47.071 0 85.583 38.514 85.583 85.583v684.671l-71.463-71.463z" />
<glyph unicode="&#xe669;" glyph-name="uni66" d="M866.536 728.361h-96.282c0 35.433-28.756 64.189-64.189 64.189h-64.189c-35.433 0-64.189-28.756-64.189-64.189h-417.221c-17.715 0-32.093-14.378-32.093-32.093s14.378-32.093 32.093-32.093h417.221c0-35.433 28.756-64.189 64.189-64.189h64.189c35.433 0 64.189 28.756 64.189 64.189h96.282c17.715 0 32.093 14.378 32.093 32.093s-14.378 32.093-32.093 32.093zM706.067 664.172h-64.189v64.189h64.189v-64.189zM866.536 471.608h-417.221c0 35.433-28.756 64.189-64.189 64.189h-64.189c-35.433 0-64.189-28.756-64.189-64.189h-96.282c-17.715 0-32.093-14.378-32.093-32.093s14.378-32.093 32.093-32.093h96.282c0-35.433 28.756-64.189 64.189-64.189h64.189c35.433 0 64.189 28.756 64.189 64.189h417.221c17.715 0 32.093 14.378 32.093 32.093s-14.378 32.093-32.093 32.093zM385.127 407.421h-64.189v64.189h64.189v-64.189zM866.536 214.857h-224.657c0 35.433-28.756 64.189-64.189 64.189h-64.189c-35.433 0-64.189-28.756-64.189-64.189h-288.846c-17.715 0-32.093-14.378-32.093-32.093s14.378-32.093 32.093-32.093h288.846c0-35.433 28.756-64.189 64.189-64.189h64.189c35.433 0 64.189 28.756 64.189 64.189h224.657c17.715 0 32.093 14.378 32.093 32.093s-14.378 32.093-32.093 32.093zM577.691 150.67h-64.189v64.189h64.189v-64.189z" />
<glyph unicode="&#xe66a;" glyph-name="alert" d="M556.295 300.442h-85.583v171.168h85.583zM556.295 129.274h-85.583v85.583h85.583zM42.793 0.898h941.422l-470.711 813.046-470.711-813.046z" />
<glyph unicode="&#xe66b;" glyph-name="heart-outline" d="M517.783 134.622l-4.279-4.279-4.708 4.279c-203.261 184.433-337.628 306.39-337.628 430.059 0 85.583 64.189 149.771 149.771 149.771 65.899 0 130.088-42.793 152.767-100.989h79.594c22.679 58.198 86.868 100.989 152.767 100.989 85.583 0 149.771-64.189 149.771-149.771 0-123.67-134.366-245.626-338.056-430.059zM706.067 800.037c-74.459 0-145.919-34.662-192.564-89.008-46.644 54.346-118.105 89.008-192.564 89.008-131.799 0-235.356-103.13-235.356-235.356 0-161.325 145.493-293.552 365.871-493.391l62.049-56.485 62.049 56.485c220.378 199.838 365.871 332.065 365.871 493.391 0 132.227-103.556 235.356-235.356 235.356z" />
<glyph unicode="&#xe66c;" glyph-name="star-outline" d="M513.502 283.752l-160.898-97.138 42.363 183.15-142.069 123.24 187.429 15.832 73.173 172.879 73.173-172.879 187.429-15.832-142.069-123.24 42.363-183.15zM941.422 546.923l-307.673 26.102-120.244 283.711-120.244-283.711-307.673-26.102 233.216-202.405-69.751-300.827 264.454 159.615 264.454-159.615-70.178 300.827 233.644 202.405z" />
<glyph unicode="&#xe66d;" glyph-name="uniE08C" d="M192.564 471.608h192.564c35.433 0 64.189 28.756 64.189 64.189v192.564c0 35.433-28.756 64.189-64.189 64.189h-192.564c-35.433 0-64.189-28.756-64.189-64.189v-192.564c0-35.433 28.756-64.189 64.189-64.189zM641.879 471.608h192.564c35.433 0 64.189 28.756 64.189 64.189v192.564c0 35.433-28.756 64.189-64.189 64.189h-192.564c-35.433 0-64.189-28.756-64.189-64.189v-192.564c0-35.433 28.756-64.189 64.189-64.189zM128.375 86.481c0-35.433 28.756-64.189 64.189-64.189h192.564c35.433 0 64.189 28.756 64.189 64.189v192.564c0 35.433-28.756 64.189-64.189 64.189h-192.564c-35.433 0-64.189-28.756-64.189-64.189v-192.564zM577.691 86.481c0-35.433 28.756-64.189 64.189-64.189h192.564c35.433 0 64.189 28.756 64.189 64.189v192.564c0 35.433-28.756 64.189-64.189 64.189h-192.564c-35.433 0-64.189-28.756-64.189-64.189v-192.564z" />
<glyph unicode="&#xe66e;" glyph-name="uniE023" d="M1023.218 740.427c-8.088 26.124-31.581 45.444-60.401 45.444h-64.189v-99.619c0-53.084-43.198-96.282-96.282-96.282s-96.282 43.198-96.282 96.282v99.619h-385.448v-99.619c0-53.084-43.198-96.282-96.282-96.282s-96.282 43.198-96.282 96.282v99.619h-63.866c-28.82 0-52.313-19.321-60.401-45.444h-3.788v-782.321c0-35.433 28.756-64.189 64.189-64.189h898.631c35.433 0 64.189 28.756 64.189 64.189v782.321h-3.788zM962.817-41.894h-898.631v513.502h898.631v-513.502zM224.337 654.158c17.715 0 32.093 14.378 32.093 32.093v202.577c0 17.715-14.378 32.093-32.093 32.093s-32.093-14.378-32.093-32.093v-202.577c0-17.715 14.378-32.093 32.093-32.093zM802.349 654.158c17.715 0 32.093 14.378 32.093 32.093v202.577c0 17.715-14.378 32.093-32.093 32.093s-32.093-14.378-32.093-32.093v-202.577c0-17.715 14.378-32.093 32.093-32.093z" />
<glyph unicode="&#xe66f;" glyph-name="settings" d="M513.502 236.254c-82.589 0-149.771 67.184-149.771 149.771s67.184 149.771 149.771 149.771c82.589 0 149.771-67.184 149.771-149.771s-67.184-149.771-149.771-149.771zM831.446 344.516c1.713 13.692 2.996 27.388 2.996 41.508s-1.283 28.244-2.996 42.793l90.291 69.751c8.131 6.418 10.27 17.974 5.135 27.388l-85.583 148.060c-5.135 9.414-16.688 13.266-26.102 9.414l-106.552-42.793c-22.253 16.688-45.359 31.238-72.319 41.936l-15.832 113.4c-1.713 10.27-10.697 17.974-21.396 17.974h-171.168c-10.697 0-19.684-7.704-21.396-17.974l-15.832-113.4c-26.958-10.697-50.067-25.248-72.319-41.936l-106.552 42.793c-9.414 3.852-20.967 0-26.102-9.414l-85.583-148.060c-5.562-9.414-2.996-20.967 5.135-27.388l90.291-69.751c-1.713-14.549-2.996-28.671-2.996-42.793s1.283-27.814 2.996-41.508l-90.291-71.034c-8.131-6.418-10.697-17.974-5.135-27.388l85.583-148.060c5.135-9.414 16.688-12.839 26.102-9.414l106.552 43.219c22.253-17.118 45.359-31.666 72.319-42.363l15.832-113.4c1.713-10.27 10.697-17.974 21.396-17.974h171.168c10.697 0 19.684 7.704 21.396 17.974l15.832 113.4c26.958 11.126 50.067 25.248 72.319 42.363l106.552-43.219c9.414-3.422 20.967 0 26.102 9.414l85.583 148.060c5.135 9.414 2.996 20.967-5.135 27.388l-90.291 71.034z" />
<glyph unicode="&#xe670;" glyph-name="Untitled-1" d="M550.218 724.509l206.942-204.888h-206.942v204.888zM236.981 759.427c-13.866-13.866-21.567-31.325-22.594-52.377v-599.258c1.027-21.055 8.731-38.514 22.594-52.377s31.325-21.055 52.377-21.055h448.288c21.055 0 38.514 7.189 52.377 21.055s21.567 31.325 22.594 52.377v448.288l-224.401 224.401h-298.859c-21.055 0-38.514-7.189-52.377-21.055zM476.788 444.136h260.859v-336.344h-448.288v599.258h187.429v-262.914z" />
<glyph unicode="&#xe671;" glyph-name="icon_drawer_alt2" d="M769.693 792.547h-517.514c-30.362 0-55.010-20.636-68.777-55.010l-110.017-384.261v-303.512c0-15.149 12.324-27.473 27.505-27.473h825.263c15.181 0 27.473 12.324 27.473 27.505v300.078l-109.985 387.663c-15.469 34.374-43.518 55.010-73.944 55.010zM235.393 719.214c2.534 5.682 8.955 18.326 16.752 18.326h517.514c7.509 0 16.208-7.768 22.306-19.577l103.695-365.518h-244.652c-15.213 0-27.505-12.356-27.505-27.505v-82.514h-220.068v82.514c0 15.181-12.324 27.505-27.505 27.505h-245.551l105.011 366.769zM898.647 77.303h-770.254v220.068h220.068v-82.514c0-15.181 12.324-27.505 27.505-27.505h275.109c15.181 0 27.473 12.356 27.473 27.505v82.514h220.101v-220.068z" />
<glyph unicode="&#xe672;" glyph-name="woo-variable-icon-1_1" d="M703.926 792.547h-380.848c-38.514 0-72.746-25.675-83.443-62.049l-111.259-408.663v-213.96c0-47.071 38.514-85.583 85.583-85.583v0h599.086c47.071 0 85.583 38.514 85.583 85.583v0 213.96l-111.259 408.663c-10.697 36.373-44.932 62.049-83.443 62.049zM810.905 321.837h-235.356c2.139-6.418 4.279-14.978 4.279-21.396 0-36.373-27.814-64.189-64.189-64.189s-64.189 27.814-64.189 64.189c0 8.557 2.139 14.978 4.279 21.396h-235.356l104.839 385.127h382.988l102.7-385.127zM813.045 107.877h-599.086v128.375h164.75c23.536-51.35 74.886-85.583 134.795-85.583s111.259 34.232 134.795 85.583h164.75v-128.375z" />
<glyph unicode="&#xe673;" glyph-name="settings-outline" d="M513.502 558.113c-42.826-1.303-78.228-16.048-106.312-44.229-28.081-28.081-42.123-63.586-42.123-106.512s14.042-78.328 42.123-106.512c28.081-28.081 63.486-42.223 106.312-42.223 42.726 0 78.228 14.042 106.312 42.223 28.081 28.081 42.123 63.586 42.123 106.512 0 42.826-14.042 78.328-42.123 106.512s-63.486 42.926-106.312 44.229zM559.638 361.236c-12.036-12.036-27.381-18.054-46.135-18.054s-34.099 6.018-46.135 18.054c-12.036 12.036-18.054 27.481-18.054 46.235s6.018 34.199 18.054 46.235c12.036 12.036 27.381 18.054 46.135 18.054s34.099-6.018 46.135-18.054c12.036-12.036 18.054-27.481 18.054-46.235 0-18.854-6.018-34.199-18.054-46.235zM832.336 365.247l2.006 42.223-2.006 42.223 90.264 70.307c8.024 8.024 9.327 17.351 4.012 28.081l-86.252 148.635c-5.315 9.327-14.042 12.036-26.075 8.024l-106.312-42.223c-21.363 17.351-45.432 31.493-72.211 42.223l-16.048 112.53c-2.709 12.036-9.327 18.054-20.060 18.054h-172.404c-10.73 0-17.351-6.018-20.060-18.054l-16.048-112.53c-26.778-10.73-50.85-24.772-72.211-42.223l-106.312 42.223c-12.036 4.012-20.76 1.303-26.075-8.024l-86.252-148.635c-5.315-10.73-4.012-20.060 4.012-28.081l90.264-70.307-2.006-42.223 2.006-42.223-90.264-70.307c-8.024-8.024-9.327-17.451-4.012-28.081l86.252-148.635c5.315-9.427 14.042-12.036 26.075-8.024l106.312 42.223c21.363-17.451 45.432-31.493 72.211-42.223l16.148-112.63c2.709-12.036 9.327-18.054 20.060-18.054h172.404c10.73 0 17.351 6.018 20.060 18.054l16.048 112.53c26.678 10.73 50.749 24.772 72.211 42.223l106.312-42.223c12.036-4.012 20.66-1.303 26.075 8.024l86.252 148.635c5.315 10.73 4.012 20.060-4.012 28.081l-90.364 70.407zM748.090 406.468c0-24.772-3.309-48.541-10.030-71.31l88.258-72.312-32.093-56.265-108.318 40.217c-32.093-34.802-72.913-58.271-122.357-70.307l-18.054-112.53h-64.189l-20.060 112.53c-48.141 12.036-88.258 36.205-120.251 72.312l-108.318-40.217-32.093 54.259 88.258 74.318c-6.721 21.363-10.030 44.832-10.030 70.307 0 24.070 3.309 47.538 10.030 70.307l-88.258 72.312 32.093 56.265 106.312-40.217c33.499 36.205 74.919 60.277 124.363 72.312l18.054 112.53h64.189l18.054-112.53c49.444-12.036 90.867-36.205 124.263-72.312l106.312 40.217 32.093-56.265-88.258-72.312c6.721-22.766 10.030-46.535 10.030-71.31z" />
<glyph unicode="&#xe674;" glyph-name="zoom" d="M114.111 87.907v205.401h-114.111v-399.391h399.391v114.111h-205.401l256.751 256.751-79.878 79.878-256.751-256.751zM193.989 806.811h205.401v114.111h-399.391v-399.391h114.111v205.401l256.751-256.751 79.878 79.878-256.751 256.751zM576.265 264.781l256.751-256.751h-205.401v-114.111h399.391v399.391h-114.111v-205.401l-256.751 256.751-79.878-79.878zM656.143 470.183l256.751 256.751v-205.401h114.111v399.391h-399.391v-114.111h205.401l-256.751-256.751 79.878-79.878z" />
<glyph unicode="&#xe675;" glyph-name="prev" d="M672.602 876.962l-456.001-456.001 456.001-456.001 108.301 108.301-353.401 347.701 347.701 347.701-102.6 108.301z" />
<glyph unicode="&#xe676;" glyph-name="next" d="M376.201-35.041l456.001 456.001-456.001 456.001-102.6-108.301 347.701-347.701-347.701-347.701 102.6-108.301z" />
<glyph unicode="&#xe677;" glyph-name="eye-outline" d="M512.5 562.612c70.761 0 128.125-57.364 128.125-128.125v0c0-70.761-57.364-128.125-128.125-128.125v0c-70.761 0-128.125 57.364-128.125 128.125v0c0 70.761 57.364 128.125 128.125 128.125v0zM512.5 754.8c213.542 0 395.907-132.823 469.792-320.313-73.885-187.49-256.25-320.313-469.792-320.313s-395.907 132.823-469.792 320.313c73.885 187.49 256.25 320.313 469.792 320.313zM135.813 434.487c70.469-143.5 216.104-234.896 376.688-234.896s306.219 91.396 376.688 234.896c-70.469 143.5-216.104 234.896-376.688 234.896s-306.219-91.396-376.688-234.896z" />
<glyph unicode="&#xe678;" glyph-name="icon_quick_view" d="M528.516 66.127c-390.782 0-493.282 323.516-496.485 326.719l-3.203 9.609 3.203 9.609c0 3.203 121.719 326.719 493.282 326.719 374.766 0 493.282-323.516 493.282-326.719l6.406-19.219c-3.203-3.203-105.703-326.719-496.485-326.719zM99.297 402.456c19.219-51.25 121.719-272.266 429.219-272.266s410 221.016 429.219 272.266c-22.422 51.25-134.531 272.266-429.219 272.266s-406.797-224.219-429.219-272.266zM528.516 210.268c-105.703 0-192.188 86.484-192.188 192.188s86.484 192.188 192.188 192.188 192.188-86.484 192.188-192.188-86.484-192.188-192.188-192.188zM528.516 530.581c-70.469 0-128.125-57.656-128.125-128.125s57.656-128.125 128.125-128.125c70.469 0 128.125 57.656 128.125 128.125s-57.656 128.125-128.125 128.125z" />
</font>
</defs>
</svg>
